<svg viewBox="0 0 1600 1000" xmlns="http://www.w3.org/2000/svg" font-family="'Cormorant Garamond',Georgia,serif">
<defs>
 <linearGradient id="ground" x1="0" y1="0" x2="0" y2="1">
   <stop offset="0" stop-color="#e6ecd8"/><stop offset="1" stop-color="#d3ddc2"/>
 </linearGradient>
 <linearGradient id="water" x1="0" y1="0" x2="1" y2="1">
   <stop offset="0" stop-color="#bfe0ea"/><stop offset="1" stop-color="#a6cfdd"/>
 </linearGradient>
 <filter id="soft" x="-20%" y="-20%" width="140%" height="140%"><feDropShadow dx="0" dy="6" stdDeviation="8" flood-color="#26332a" flood-opacity="0.18"/></filter>
</defs>

<!-- estate ground -->
<path d="M150,300 C120,220 240,170 360,180 C520,150 760,150 980,175 C1180,155 1360,190 1470,250
 C1540,300 1520,430 1470,520 C1520,640 1470,760 1360,820 C1200,900 980,930 760,930
 C560,945 360,905 270,820 C150,760 170,640 210,560 C160,470 130,380 150,300 Z"
 fill="url(#ground)" stroke="#b7c3a4" stroke-width="3"/>

<!-- creek -->
<path d="M1500,250 C1330,300 1250,410 1180,480 C1090,565 1050,620 1030,700 C1010,790 900,840 800,890 C740,918 690,930 660,935"
 fill="none" stroke="url(#water)" stroke-width="40" stroke-linecap="round" opacity=".95"/>
<path d="M1500,250 C1330,300 1250,410 1180,480 C1090,565 1050,620 1030,700 C1010,790 900,840 800,890 C740,918 690,930 660,935"
 fill="none" stroke="#d7eef4" stroke-width="12" stroke-linecap="round" opacity=".6"/>
<text x="1150" y="470" fill="#5f8199" font-style="italic" font-size="26" transform="rotate(-18 1150 470)">Lookout Creek</text>

<!-- roads -->
<g stroke-linecap="round" fill="none">
 <path d="M300,175 C300,300 300,360 340,430 C380,500 420,520 470,520" stroke="#efe7d5" stroke-width="18"/>
 <path d="M300,175 C300,300 300,360 340,430 C380,500 420,520 470,520" stroke="#cdbf9f" stroke-width="18" stroke-dasharray="2 16" opacity=".7"/>
 <path d="M340,430 C360,560 400,680 470,780" stroke="#efe7d5" stroke-width="16"/>
 <path d="M470,520 C560,520 640,520 720,540" stroke="#efe7d5" stroke-width="14"/>
</g>
<text x="250" y="300" fill="#7a7361" font-size="20" transform="rotate(-78 250 300)">WL Ford Road</text>
<text x="360" y="640" fill="#7a7361" font-size="20" transform="rotate(72 360 640)">Pope Creek Road</text>

<!-- trees -->
<g transform="translate(1093,185)"><ellipse cx="0" cy="12" rx="12" ry="4" fill="rgba(40,55,42,.12)"/><circle cx="-7" cy="0" r="10" fill="#566a52"/><circle cx="7" cy="-1" r="11" fill="#61745b"/><circle cx="0" cy="-7" r="9" fill="#566a52"/></g><g transform="translate(722,186)"><ellipse cx="0" cy="16" rx="16" ry="5" fill="rgba(40,55,42,.12)"/><circle cx="-9" cy="0" r="14" fill="#566a52"/><circle cx="9" cy="-2" r="15" fill="#61745b"/><circle cx="0" cy="-9" r="13" fill="#566a52"/></g><g transform="translate(1203,211)"><ellipse cx="0" cy="17" rx="17" ry="5" fill="rgba(40,55,42,.12)"/><circle cx="-9" cy="0" r="14" fill="#6f8168"/><circle cx="9" cy="-2" r="15" fill="#83957a"/><circle cx="0" cy="-9" r="13" fill="#6f8168"/></g><g transform="translate(187,212)"><ellipse cx="0" cy="14" rx="14" ry="4" fill="rgba(40,55,42,.12)"/><circle cx="-8" cy="0" r="12" fill="#566a52"/><circle cx="8" cy="-2" r="13" fill="#61745b"/><circle cx="0" cy="-8" r="11" fill="#566a52"/></g><g transform="translate(1072,225)"><ellipse cx="0" cy="15" rx="15" ry="5" fill="rgba(40,55,42,.12)"/><circle cx="-9" cy="0" r="13" fill="#6f8168"/><circle cx="9" cy="-2" r="14" fill="#83957a"/><circle cx="0" cy="-9" r="12" fill="#6f8168"/></g><g transform="translate(327,226)"><ellipse cx="0" cy="12" rx="12" ry="4" fill="rgba(40,55,42,.12)"/><circle cx="-7" cy="0" r="10" fill="#6f8168"/><circle cx="7" cy="-1" r="11" fill="#83957a"/><circle cx="0" cy="-7" r="10" fill="#6f8168"/></g><g transform="translate(762,228)"><ellipse cx="0" cy="17" rx="17" ry="5" fill="rgba(40,55,42,.12)"/><circle cx="-9" cy="0" r="14" fill="#6f8168"/><circle cx="9" cy="-2" r="15" fill="#83957a"/><circle cx="0" cy="-9" r="13" fill="#6f8168"/></g><g transform="translate(382,230)"><ellipse cx="0" cy="18" rx="18" ry="5" fill="rgba(40,55,42,.12)"/><circle cx="-10" cy="0" r="15" fill="#566a52"/><circle cx="10" cy="-2" r="16" fill="#61745b"/><circle cx="0" cy="-10" r="14" fill="#566a52"/></g><g transform="translate(818,233)"><ellipse cx="0" cy="10" rx="10" ry="3" fill="rgba(40,55,42,.12)"/><circle cx="-5" cy="0" r="8" fill="#566a52"/><circle cx="5" cy="-1" r="9" fill="#61745b"/><circle cx="0" cy="-5" r="8" fill="#566a52"/></g><g transform="translate(688,245)"><ellipse cx="0" cy="15" rx="15" ry="5" fill="rgba(40,55,42,.12)"/><circle cx="-8" cy="0" r="13" fill="#566a52"/><circle cx="8" cy="-2" r="14" fill="#61745b"/><circle cx="0" cy="-8" r="12" fill="#566a52"/></g><g transform="translate(246,252)"><ellipse cx="0" cy="10" rx="10" ry="3" fill="rgba(40,55,42,.12)"/><circle cx="-6" cy="0" r="8" fill="#6f8168"/><circle cx="6" cy="-1" r="9" fill="#83957a"/><circle cx="0" cy="-6" r="8" fill="#6f8168"/></g><g transform="translate(324,255)"><ellipse cx="0" cy="10" rx="10" ry="3" fill="rgba(40,55,42,.12)"/><circle cx="-6" cy="0" r="9" fill="#566a52"/><circle cx="6" cy="-1" r="9" fill="#61745b"/><circle cx="0" cy="-6" r="8" fill="#566a52"/></g><g transform="translate(475,258)"><ellipse cx="0" cy="17" rx="17" ry="5" fill="rgba(40,55,42,.12)"/><circle cx="-9" cy="0" r="14" fill="#566a52"/><circle cx="9" cy="-2" r="15" fill="#61745b"/><circle cx="0" cy="-9" r="13" fill="#566a52"/></g><g transform="translate(676,259)"><ellipse cx="0" cy="10" rx="10" ry="3" fill="rgba(40,55,42,.12)"/><circle cx="-6" cy="0" r="9" fill="#6f8168"/><circle cx="6" cy="-1" r="9" fill="#83957a"/><circle cx="0" cy="-6" r="8" fill="#6f8168"/></g><g transform="translate(1221,264)"><ellipse cx="0" cy="16" rx="16" ry="5" fill="rgba(40,55,42,.12)"/><circle cx="-9" cy="0" r="13" fill="#6f8168"/><circle cx="9" cy="-2" r="14" fill="#83957a"/><circle cx="0" cy="-9" r="12" fill="#6f8168"/></g><g transform="translate(265,269)"><ellipse cx="0" cy="16" rx="16" ry="5" fill="rgba(40,55,42,.12)"/><circle cx="-9" cy="0" r="13" fill="#6f8168"/><circle cx="9" cy="-2" r="14" fill="#83957a"/><circle cx="0" cy="-9" r="13" fill="#6f8168"/></g><g transform="translate(570,269)"><ellipse cx="0" cy="10" rx="10" ry="3" fill="rgba(40,55,42,.12)"/><circle cx="-6" cy="0" r="9" fill="#566a52"/><circle cx="6" cy="-1" r="9" fill="#61745b"/><circle cx="0" cy="-6" r="8" fill="#566a52"/></g><g transform="translate(1005,270)"><ellipse cx="0" cy="10" rx="10" ry="3" fill="rgba(40,55,42,.12)"/><circle cx="-6" cy="0" r="8" fill="#6f8168"/><circle cx="6" cy="-1" r="9" fill="#83957a"/><circle cx="0" cy="-6" r="8" fill="#6f8168"/></g><g transform="translate(1136,272)"><ellipse cx="0" cy="14" rx="14" ry="4" fill="rgba(40,55,42,.12)"/><circle cx="-8" cy="0" r="12" fill="#6f8168"/><circle cx="8" cy="-2" r="13" fill="#83957a"/><circle cx="0" cy="-8" r="11" fill="#6f8168"/></g><g transform="translate(1054,273)"><ellipse cx="0" cy="13" rx="13" ry="4" fill="rgba(40,55,42,.12)"/><circle cx="-7" cy="0" r="11" fill="#6f8168"/><circle cx="7" cy="-1" r="11" fill="#83957a"/><circle cx="0" cy="-7" r="10" fill="#6f8168"/></g><g transform="translate(458,276)"><ellipse cx="0" cy="12" rx="12" ry="4" fill="rgba(40,55,42,.12)"/><circle cx="-7" cy="0" r="10" fill="#6f8168"/><circle cx="7" cy="-1" r="11" fill="#83957a"/><circle cx="0" cy="-7" r="10" fill="#6f8168"/></g><g transform="translate(1016,278)"><ellipse cx="0" cy="12" rx="12" ry="4" fill="rgba(40,55,42,.12)"/><circle cx="-6" cy="0" r="10" fill="#566a52"/><circle cx="6" cy="-1" r="10" fill="#61745b"/><circle cx="0" cy="-6" r="9" fill="#566a52"/></g><g transform="translate(354,280)"><ellipse cx="0" cy="15" rx="15" ry="5" fill="rgba(40,55,42,.12)"/><circle cx="-8" cy="0" r="12" fill="#566a52"/><circle cx="8" cy="-2" r="13" fill="#61745b"/><circle cx="0" cy="-8" r="12" fill="#566a52"/></g><g transform="translate(155,288)"><ellipse cx="0" cy="11" rx="11" ry="3" fill="rgba(40,55,42,.12)"/><circle cx="-6" cy="0" r="9" fill="#566a52"/><circle cx="6" cy="-1" r="10" fill="#61745b"/><circle cx="0" cy="-6" r="8" fill="#566a52"/></g><g transform="translate(176,288)"><ellipse cx="0" cy="11" rx="11" ry="3" fill="rgba(40,55,42,.12)"/><circle cx="-6" cy="0" r="9" fill="#566a52"/><circle cx="6" cy="-1" r="10" fill="#61745b"/><circle cx="0" cy="-6" r="9" fill="#566a52"/></g><g transform="translate(781,288)"><ellipse cx="0" cy="17" rx="17" ry="5" fill="rgba(40,55,42,.12)"/><circle cx="-10" cy="0" r="15" fill="#6f8168"/><circle cx="10" cy="-2" r="16" fill="#83957a"/><circle cx="0" cy="-10" r="14" fill="#6f8168"/></g><g transform="translate(740,289)"><ellipse cx="0" cy="10" rx="10" ry="3" fill="rgba(40,55,42,.12)"/><circle cx="-6" cy="0" r="8" fill="#566a52"/><circle cx="6" cy="-1" r="9" fill="#61745b"/><circle cx="0" cy="-6" r="8" fill="#566a52"/></g><g transform="translate(490,302)"><ellipse cx="0" cy="15" rx="15" ry="5" fill="rgba(40,55,42,.12)"/><circle cx="-8" cy="0" r="12" fill="#566a52"/><circle cx="8" cy="-2" r="13" fill="#61745b"/><circle cx="0" cy="-8" r="12" fill="#566a52"/></g><g transform="translate(408,306)"><ellipse cx="0" cy="14" rx="14" ry="4" fill="rgba(40,55,42,.12)"/><circle cx="-8" cy="0" r="12" fill="#6f8168"/><circle cx="8" cy="-2" r="12" fill="#83957a"/><circle cx="0" cy="-8" r="11" fill="#6f8168"/></g><g transform="translate(732,306)"><ellipse cx="0" cy="17" rx="17" ry="5" fill="rgba(40,55,42,.12)"/><circle cx="-10" cy="0" r="15" fill="#566a52"/><circle cx="10" cy="-2" r="16" fill="#61745b"/><circle cx="0" cy="-10" r="14" fill="#566a52"/></g><g transform="translate(1301,390)"><ellipse cx="0" cy="12" rx="12" ry="4" fill="rgba(40,55,42,.12)"/><circle cx="-7" cy="0" r="10" fill="#566a52"/><circle cx="7" cy="-1" r="10" fill="#61745b"/><circle cx="0" cy="-7" r="9" fill="#566a52"/></g><g transform="translate(1304,419)"><ellipse cx="0" cy="14" rx="14" ry="4" fill="rgba(40,55,42,.12)"/><circle cx="-8" cy="0" r="12" fill="#6f8168"/><circle cx="8" cy="-2" r="12" fill="#83957a"/><circle cx="0" cy="-8" r="11" fill="#6f8168"/></g><g transform="translate(1358,448)"><ellipse cx="0" cy="11" rx="11" ry="4" fill="rgba(40,55,42,.12)"/><circle cx="-6" cy="0" r="10" fill="#566a52"/><circle cx="6" cy="-1" r="10" fill="#61745b"/><circle cx="0" cy="-6" r="9" fill="#566a52"/></g><g transform="translate(1261,454)"><ellipse cx="0" cy="10" rx="10" ry="3" fill="rgba(40,55,42,.12)"/><circle cx="-6" cy="0" r="9" fill="#566a52"/><circle cx="6" cy="-1" r="9" fill="#61745b"/><circle cx="0" cy="-6" r="8" fill="#566a52"/></g><g transform="translate(1444,456)"><ellipse cx="0" cy="14" rx="14" ry="4" fill="rgba(40,55,42,.12)"/><circle cx="-8" cy="0" r="12" fill="#566a52"/><circle cx="8" cy="-2" r="12" fill="#61745b"/><circle cx="0" cy="-8" r="11" fill="#566a52"/></g><g transform="translate(1314,469)"><ellipse cx="0" cy="10" rx="10" ry="3" fill="rgba(40,55,42,.12)"/><circle cx="-5" cy="0" r="8" fill="#566a52"/><circle cx="5" cy="-1" r="9" fill="#61745b"/><circle cx="0" cy="-5" r="8" fill="#566a52"/></g><g transform="translate(1306,473)"><ellipse cx="0" cy="17" rx="17" ry="5" fill="rgba(40,55,42,.12)"/><circle cx="-9" cy="0" r="14" fill="#6f8168"/><circle cx="9" cy="-2" r="15" fill="#83957a"/><circle cx="0" cy="-9" r="13" fill="#6f8168"/></g><g transform="translate(1377,486)"><ellipse cx="0" cy="10" rx="10" ry="3" fill="rgba(40,55,42,.12)"/><circle cx="-6" cy="0" r="8" fill="#6f8168"/><circle cx="6" cy="-1" r="9" fill="#83957a"/><circle cx="0" cy="-6" r="8" fill="#6f8168"/></g><g transform="translate(1281,492)"><ellipse cx="0" cy="11" rx="11" ry="3" fill="rgba(40,55,42,.12)"/><circle cx="-6" cy="0" r="9" fill="#6f8168"/><circle cx="6" cy="-1" r="9" fill="#83957a"/><circle cx="0" cy="-6" r="8" fill="#6f8168"/></g><g transform="translate(1303,495)"><ellipse cx="0" cy="16" rx="16" ry="5" fill="rgba(40,55,42,.12)"/><circle cx="-9" cy="0" r="14" fill="#566a52"/><circle cx="9" cy="-2" r="15" fill="#61745b"/><circle cx="0" cy="-9" r="13" fill="#566a52"/></g><g transform="translate(283,556)"><ellipse cx="0" cy="13" rx="13" ry="4" fill="rgba(40,55,42,.12)"/><circle cx="-7" cy="0" r="11" fill="#566a52"/><circle cx="7" cy="-1" r="12" fill="#61745b"/><circle cx="0" cy="-7" r="10" fill="#566a52"/></g><g transform="translate(367,562)"><ellipse cx="0" cy="11" rx="11" ry="3" fill="rgba(40,55,42,.12)"/><circle cx="-6" cy="0" r="9" fill="#566a52"/><circle cx="6" cy="-1" r="10" fill="#61745b"/><circle cx="0" cy="-6" r="9" fill="#566a52"/></g><g transform="translate(300,612)"><ellipse cx="0" cy="12" rx="12" ry="4" fill="rgba(40,55,42,.12)"/><circle cx="-6" cy="0" r="10" fill="#6f8168"/><circle cx="6" cy="-1" r="10" fill="#83957a"/><circle cx="0" cy="-6" r="9" fill="#6f8168"/></g><g transform="translate(234,614)"><ellipse cx="0" cy="14" rx="14" ry="4" fill="rgba(40,55,42,.12)"/><circle cx="-8" cy="0" r="11" fill="#6f8168"/><circle cx="8" cy="-2" r="12" fill="#83957a"/><circle cx="0" cy="-8" r="11" fill="#6f8168"/></g><g transform="translate(272,614)"><ellipse cx="0" cy="14" rx="14" ry="4" fill="rgba(40,55,42,.12)"/><circle cx="-8" cy="0" r="12" fill="#6f8168"/><circle cx="8" cy="-2" r="13" fill="#83957a"/><circle cx="0" cy="-8" r="11" fill="#6f8168"/></g><g transform="translate(297,624)"><ellipse cx="0" cy="11" rx="11" ry="3" fill="rgba(40,55,42,.12)"/><circle cx="-6" cy="0" r="9" fill="#6f8168"/><circle cx="6" cy="-1" r="10" fill="#83957a"/><circle cx="0" cy="-6" r="8" fill="#6f8168"/></g><g transform="translate(1126,686)"><ellipse cx="0" cy="16" rx="16" ry="5" fill="rgba(40,55,42,.12)"/><circle cx="-9" cy="0" r="14" fill="#6f8168"/><circle cx="9" cy="-2" r="15" fill="#83957a"/><circle cx="0" cy="-9" r="13" fill="#6f8168"/></g><g transform="translate(1124,697)"><ellipse cx="0" cy="12" rx="12" ry="4" fill="rgba(40,55,42,.12)"/><circle cx="-7" cy="0" r="10" fill="#566a52"/><circle cx="7" cy="-1" r="11" fill="#61745b"/><circle cx="0" cy="-7" r="9" fill="#566a52"/></g><g transform="translate(1131,743)"><ellipse cx="0" cy="17" rx="17" ry="5" fill="rgba(40,55,42,.12)"/><circle cx="-10" cy="0" r="14" fill="#6f8168"/><circle cx="10" cy="-2" r="15" fill="#83957a"/><circle cx="0" cy="-10" r="13" fill="#6f8168"/></g><g transform="translate(1121,745)"><ellipse cx="0" cy="12" rx="12" ry="4" fill="rgba(40,55,42,.12)"/><circle cx="-6" cy="0" r="10" fill="#566a52"/><circle cx="6" cy="-1" r="10" fill="#61745b"/><circle cx="0" cy="-6" r="9" fill="#566a52"/></g><g transform="translate(1113,768)"><ellipse cx="0" cy="12" rx="12" ry="4" fill="rgba(40,55,42,.12)"/><circle cx="-7" cy="0" r="10" fill="#6f8168"/><circle cx="7" cy="-1" r="11" fill="#83957a"/><circle cx="0" cy="-7" r="9" fill="#6f8168"/></g><g transform="translate(560,788)"><ellipse cx="0" cy="11" rx="11" ry="3" fill="rgba(40,55,42,.12)"/><circle cx="-6" cy="0" r="9" fill="#6f8168"/><circle cx="6" cy="-1" r="10" fill="#83957a"/><circle cx="0" cy="-6" r="9" fill="#6f8168"/></g><g transform="translate(617,796)"><ellipse cx="0" cy="15" rx="15" ry="5" fill="rgba(40,55,42,.12)"/><circle cx="-8" cy="0" r="13" fill="#6f8168"/><circle cx="8" cy="-2" r="13" fill="#83957a"/><circle cx="0" cy="-8" r="12" fill="#6f8168"/></g><g transform="translate(1023,797)"><ellipse cx="0" cy="16" rx="16" ry="5" fill="rgba(40,55,42,.12)"/><circle cx="-9" cy="0" r="14" fill="#6f8168"/><circle cx="9" cy="-2" r="14" fill="#83957a"/><circle cx="0" cy="-9" r="13" fill="#6f8168"/></g><g transform="translate(1068,798)"><ellipse cx="0" cy="15" rx="15" ry="5" fill="rgba(40,55,42,.12)"/><circle cx="-8" cy="0" r="12" fill="#6f8168"/><circle cx="8" cy="-2" r="13" fill="#83957a"/><circle cx="0" cy="-8" r="11" fill="#6f8168"/></g><g transform="translate(1063,827)"><ellipse cx="0" cy="13" rx="13" ry="4" fill="rgba(40,55,42,.12)"/><circle cx="-7" cy="0" r="11" fill="#566a52"/><circle cx="7" cy="-1" r="11" fill="#61745b"/><circle cx="0" cy="-7" r="10" fill="#566a52"/></g><g transform="translate(687,828)"><ellipse cx="0" cy="14" rx="14" ry="4" fill="rgba(40,55,42,.12)"/><circle cx="-8" cy="0" r="12" fill="#6f8168"/><circle cx="8" cy="-2" r="12" fill="#83957a"/><circle cx="0" cy="-8" r="11" fill="#6f8168"/></g><g transform="translate(1111,838)"><ellipse cx="0" cy="14" rx="14" ry="4" fill="rgba(40,55,42,.12)"/><circle cx="-8" cy="0" r="12" fill="#6f8168"/><circle cx="8" cy="-2" r="12" fill="#83957a"/><circle cx="0" cy="-8" r="11" fill="#6f8168"/></g><g transform="translate(600,861)"><ellipse cx="0" cy="17" rx="17" ry="5" fill="rgba(40,55,42,.12)"/><circle cx="-9" cy="0" r="14" fill="#6f8168"/><circle cx="9" cy="-2" r="15" fill="#83957a"/><circle cx="0" cy="-9" r="13" fill="#6f8168"/></g><g transform="translate(412,873)"><ellipse cx="0" cy="16" rx="16" ry="5" fill="rgba(40,55,42,.12)"/><circle cx="-9" cy="0" r="14" fill="#566a52"/><circle cx="9" cy="-2" r="15" fill="#61745b"/><circle cx="0" cy="-9" r="13" fill="#566a52"/></g><g transform="translate(673,873)"><ellipse cx="0" cy="17" rx="17" ry="5" fill="rgba(40,55,42,.12)"/><circle cx="-9" cy="0" r="14" fill="#6f8168"/><circle cx="9" cy="-2" r="15" fill="#83957a"/><circle cx="0" cy="-9" r="13" fill="#6f8168"/></g><g transform="translate(492,886)"><ellipse cx="0" cy="11" rx="11" ry="3" fill="rgba(40,55,42,.12)"/><circle cx="-6" cy="0" r="9" fill="#566a52"/><circle cx="6" cy="-1" r="10" fill="#61745b"/><circle cx="0" cy="-6" r="8" fill="#566a52"/></g><g transform="translate(420,890)"><ellipse cx="0" cy="16" rx="16" ry="5" fill="rgba(40,55,42,.12)"/><circle cx="-9" cy="0" r="13" fill="#566a52"/><circle cx="9" cy="-2" r="14" fill="#61745b"/><circle cx="0" cy="-9" r="12" fill="#566a52"/></g><g transform="translate(654,902)"><ellipse cx="0" cy="18" rx="18" ry="5" fill="rgba(40,55,42,.12)"/><circle cx="-10" cy="0" r="15" fill="#6f8168"/><circle cx="10" cy="-2" r="16" fill="#83957a"/><circle cx="0" cy="-10" r="14" fill="#6f8168"/></g><g transform="translate(485,906)"><ellipse cx="0" cy="18" rx="18" ry="5" fill="rgba(40,55,42,.12)"/><circle cx="-10" cy="0" r="15" fill="#566a52"/><circle cx="10" cy="-2" r="16" fill="#61745b"/><circle cx="0" cy="-10" r="14" fill="#566a52"/></g>

<!-- ===== BUILDINGS ===== -->
<!-- Magnolia House -->
<g filter="url(#soft)" transform="translate(430,470)">
 <rect x="-46" y="-30" width="92" height="60" fill="#f7f3ea" stroke="#26332a" stroke-width="2.5"/>
 <path d="M-54,-30 L0,-62 L54,-30 Z" fill="#3c4a3e" stroke="#26332a" stroke-width="2.5"/>
 <g stroke="#c8bda3" stroke-width="4"><line x1="-34" y1="-24" x2="-34" y2="26"/><line x1="-17" y1="-26" x2="-17" y2="26"/><line x1="0" y1="-28" x2="0" y2="26"/><line x1="17" y1="-26" x2="17" y2="26"/><line x1="34" y1="-24" x2="34" y2="26"/></g>
</g>

<!-- Overlook Village (cabins) -->
<g filter="url(#soft)" transform="translate(690,350)">
 <g transform="translate(-40,0)"><rect x="-16" y="-12" width="32" height="26" fill="#f2ede0" stroke="#26332a" stroke-width="2"/><path d="M-20,-12 L0,-28 L20,-12 Z" fill="#4a5a48" stroke="#26332a" stroke-width="2"/></g>
 <g transform="translate(6,-6)"><rect x="-16" y="-12" width="32" height="26" fill="#f2ede0" stroke="#26332a" stroke-width="2"/><path d="M-20,-12 L0,-28 L20,-12 Z" fill="#4a5a48" stroke="#26332a" stroke-width="2"/></g>
 <g transform="translate(48,4)"><rect x="-16" y="-12" width="32" height="26" fill="#f2ede0" stroke="#26332a" stroke-width="2"/><path d="M-20,-12 L0,-28 L20,-12 Z" fill="#4a5a48" stroke="#26332a" stroke-width="2"/></g>
</g>

<!-- The Lodge -->
<g filter="url(#soft)" transform="translate(700,505)">
 <rect x="-28" y="-18" width="56" height="38" fill="#f7f3ea" stroke="#26332a" stroke-width="2.5"/>
 <path d="M-34,-18 L0,-40 L34,-18 Z" fill="#3c4a3e" stroke="#26332a" stroke-width="2.5"/>
 <rect x="-8" y="2" width="16" height="18" fill="#4a5a48"/>
</g>

<!-- Davis Hall (long) -->
<g filter="url(#soft)" transform="translate(880,470)">
 <rect x="-70" y="-22" width="140" height="46" fill="#f7f3ea" stroke="#26332a" stroke-width="2.5"/>
 <path d="M-78,-22 L-54,-42 L78,-42 L54,-22 Z" fill="#3c4a3e" stroke="#26332a" stroke-width="2.5"/>
 <path d="M78,-42 L78,4 L70,24 L70,-22 Z" fill="#2f3b31" stroke="#26332a" stroke-width="2"/>
</g>

<!-- Ivy Barn -->
<g filter="url(#soft)" transform="translate(630,600)">
 <rect x="-40" y="-20" width="80" height="40" fill="#e9dfce" stroke="#26332a" stroke-width="2.5"/>
 <path d="M-44,-20 C-44,-44 44,-44 44,-20 Z" fill="#6b4a3a" stroke="#26332a" stroke-width="2.5"/>
</g>

<!-- The Greenhouse -->
<g filter="url(#soft)" transform="translate(770,820)">
 <path d="M-30,20 L-30,-6 C-30,-30 30,-30 30,-6 L30,20 Z" fill="#eaf3ef" stroke="#26332a" stroke-width="2.5" opacity=".95"/>
 <g stroke="#9bb7a6" stroke-width="2"><line x1="0" y1="-28" x2="0" y2="20"/><line x1="-16" y1="-14" x2="-16" y2="20"/><line x1="16" y1="-14" x2="16" y2="20"/></g>
</g>

<!-- The Valley (open lawn — pergola/arch marker) -->
<g transform="translate(740,660)">
 <ellipse cx="0" cy="8" rx="70" ry="26" fill="#c7d4b2" opacity=".7"/>
 <path d="M-26,10 C-26,-22 26,-22 26,10" fill="none" stroke="#b08a52" stroke-width="4"/>
</g>

<!-- Parking -->
<g transform="translate(520,690)">
 <circle r="18" fill="#f7f3ea" stroke="#b08a52" stroke-width="2.5"/>
 <text x="0" y="7" text-anchor="middle" font-size="24" fill="#26332a" font-family="'Jost',sans-serif" font-weight="600">P</text>
</g>

<!-- Compass -->
<g transform="translate(320,760)" font-family="'Jost',sans-serif">
 <circle r="34" fill="#f7f3ea" stroke="#b08a52" stroke-width="2"/>
 <path d="M0,-30 L7,0 L0,30 L-7,0 Z" fill="#26332a"/>
 <path d="M-30,0 L0,-7 L30,0 L0,7 Z" fill="#b08a52"/>
 <text x="0" y="-38" text-anchor="middle" font-size="15" fill="#26332a">N</text>
</g>

<!-- Title -->
<g transform="translate(1300,880)" text-anchor="middle">
 <text x="0" y="0" font-size="34" fill="#26332a" letter-spacing="2">The Valley Venues</text>
 <text x="0" y="26" font-size="14" fill="#b08a52" font-family="'Jost',sans-serif" letter-spacing="6">WILDWOOD · GEORGIA</text>
</g>
</svg>